<?xml version="1.0" standalone="no"?>
<!DOCTYPE svg PUBLIC "-//W3C//DTD SVG 20010904//EN"
 "http://www.w3.org/TR/2001/REC-SVG-20010904/DTD/svg10.dtd">
<svg version="1.0" xmlns="http://www.w3.org/2000/svg"
 width="600.000000pt" height="600.000000pt" viewBox="0 0 600.000000 600.000000"
 preserveAspectRatio="xMidYMid meet">
<metadata>
Created by potrace 1.11, written by Peter Selinger 2001-2013
</metadata>
<g transform="translate(0.000000,600.000000) scale(0.100000,-0.100000)"
fill="#000000" stroke="none">
<path d="M0 3000 l0 -3000 3000 0 3000 0 0 3000 0 3000 -3000 0 -3000 0 0
-3000z m5910 279 c0 -2101 -3 -2630 -12 -2627 -7 3 -37 13 -66 23 -41 13 -55
23 -62 44 -22 61 -35 75 -85 88 -113 30 -567 138 -816 193 -193 43 -1048 220
-1063 220 0 0 -1 129 0 286 l1 286 -31 20 c-17 10 -61 33 -98 51 -93 43 -92
52 29 185 201 222 284 360 344 569 33 113 34 115 74 135 87 44 129 106 145
215 5 37 25 133 44 213 77 323 97 470 72 540 -21 61 -20 95 4 111 29 20 53
141 54 275 l1 110 40 -7 c90 -18 91 -15 35 50 -75 86 -83 118 -87 360 -3 232
4 208 -115 383 -151 221 -320 339 -490 343 -71 2 -84 6 -190 58 -217 107 -351
137 -443 99 -37 -15 -79 -22 -159 -25 -102 -4 -111 -5 -131 -29 -16 -18 -40
-30 -81 -38 -120 -25 -409 -133 -457 -170 -31 -25 -76 -109 -108 -205 l-27
-80 -77 -27 c-139 -49 -253 -133 -309 -231 -35 -61 -90 -226 -121 -363 -28
-126 -66 -366 -59 -373 2 -3 10 1 16 7 7 7 15 12 19 12 3 0 9 -48 12 -107 4
-90 3 -111 -11 -126 -38 -42 -25 -187 44 -488 44 -192 60 -271 69 -331 9 -71
58 -137 123 -168 38 -18 54 -32 58 -50 21 -93 60 -216 89 -276 36 -75 161
-253 271 -386 54 -66 64 -83 64 -116 0 -39 0 -39 -69 -66 -37 -15 -78 -37 -89
-49 -31 -33 -46 -187 -39 -414 l5 -181 -47 -7 c-217 -31 -882 -164 -1191 -238
-127 -30 -136 -34 -148 -62 -12 -27 -25 -34 -140 -69 -70 -22 -236 -76 -369
-121 l-243 -81 0 2633 0 2633 2910 0 2910 0 0 -2631z m-2490 2115 c30 -10 115
-48 188 -86 131 -66 134 -67 195 -62 152 14 320 -113 475 -360 l53 -85 3 -183
c2 -101 8 -205 15 -232 12 -49 11 -50 -18 -79 l-29 -30 20 -28 c43 -58 32
-308 -17 -365 -24 -27 -35 -65 -35 -114 0 -21 -7 -30 -30 -40 -34 -14 -33 -12
-59 -147 -21 -109 -36 -150 -44 -123 -19 62 -30 155 -32 270 -2 147 -5 156
-83 318 -23 46 -62 147 -88 225 -26 78 -52 145 -58 149 -6 4 -21 8 -33 8 -91
0 -536 188 -636 268 -63 51 -115 57 -478 57 l-326 0 -42 -29 c-65 -45 -170
-145 -187 -178 -11 -21 -18 -77 -23 -186 l-7 -157 -73 -133 c-108 -196 -110
-201 -123 -438 -7 -112 -15 -201 -19 -196 -3 4 -18 74 -32 156 -24 136 -29
152 -57 181 l-30 31 0 183 c0 131 -3 180 -11 175 -15 -9 -6 45 37 213 61 245
114 334 239 408 53 32 136 62 216 79 22 5 28 14 39 63 19 90 59 187 88 221 51
58 400 179 492 170 48 -5 48 -5 54 27 6 32 8 33 74 39 38 4 86 4 108 1 30 -5
46 -1 69 15 25 18 40 20 90 17 33 -3 85 -13 115 -23z m-382 -744 c62 -8 85
-17 140 -54 118 -78 340 -177 529 -236 l101 -32 42 -122 c23 -66 66 -173 96
-238 l55 -116 4 -139 c2 -96 11 -176 29 -263 30 -147 31 -164 11 -340 -26
-226 -53 -364 -101 -511 -53 -159 -103 -245 -241 -409 -104 -123 -315 -328
-356 -345 -18 -7 -77 -23 -132 -35 -158 -36 -356 -29 -497 16 -39 13 -64 33
-137 112 -179 194 -348 418 -406 536 -48 99 -79 216 -110 413 -36 224 -40 367
-21 678 l15 260 96 190 95 190 6 150 7 150 31 33 c68 72 128 110 181 115 107
8 494 6 563 -3z m-1148 -1406 c32 -35 40 -51 40 -82 0 -21 7 -91 16 -156 8
-65 13 -126 11 -135 -6 -27 -46 48 -52 99 -3 25 -26 133 -50 240 -52 229 -75
359 -74 409 1 20 16 -47 35 -147 33 -183 33 -184 74 -228z m2395 269 c-9 -53
-32 -164 -51 -247 -19 -83 -44 -197 -54 -252 -16 -90 -44 -163 -57 -150 -3 2
3 48 12 101 9 53 22 145 29 204 11 88 22 127 59 212 28 64 50 135 58 184 7 44
15 72 17 62 2 -10 -4 -62 -13 -114z m-1568 -1823 c93 -62 149 -89 221 -106
102 -24 142 -19 236 31 116 61 186 107 262 171 35 30 66 54 69 54 3 0 5 -59 5
-130 l0 -130 -62 -46 c-72 -53 -131 -84 -204 -108 -28 -9 -63 -29 -78 -45 -28
-29 -90 -164 -122 -263 -10 -32 -20 -58 -23 -58 -3 0 -17 34 -30 76 -33 103
-82 204 -118 239 -31 31 -75 53 -208 105 -44 17 -94 40 -112 51 l-33 21 0 153
0 153 63 -60 c34 -33 94 -82 134 -108z m-297 24 c0 -86 -6 -87 -50 -11 l-29
52 32 17 c18 9 35 17 40 18 4 0 7 -34 7 -76z m1233 54 c15 -12 14 -16 -13 -48
l-29 -35 -1 48 c0 50 11 59 43 35z m-563 -88 c-8 -5 -37 -9 -65 -8 l-50 1 55
7 c30 4 60 7 65 8 6 1 3 -3 -5 -8z m627 -260 c-9 -216 -7 -209 -85 -261 -93
-61 -232 -130 -327 -161 -91 -30 -202 -55 -210 -46 -7 6 66 210 107 300 l30
66 75 27 c100 37 231 126 323 219 l75 76 9 -32 c4 -18 6 -103 3 -188z m-1257
54 c46 -31 156 -82 269 -125 40 -15 72 -35 87 -54 26 -35 71 -145 107 -262 30
-98 36 -95 -104 -59 -169 44 -367 136 -459 214 l-34 29 -4 189 -5 189 49 -45
c27 -25 69 -59 94 -76z m-131 -388 c148 -109 380 -200 610 -241 72 -13 93 -12
169 1 215 37 418 118 586 234 l71 49 395 -79 c679 -136 1478 -320 1505 -346
14 -14 40 -94 76 -234 12 -47 25 -88 28 -92 7 -8 91 11 91 21 0 3 -11 45 -24
94 -13 48 -23 87 -22 87 1 0 23 -7 49 -16 l47 -16 0 -229 0 -229 -2910 0
-2910 0 2 226 3 226 125 44 c180 64 570 188 575 183 2 -3 -9 -52 -26 -109 -16
-58 -29 -107 -29 -110 0 -9 85 -29 91 -22 3 4 26 80 50 170 l44 163 35 9 c225
60 1190 253 1297 259 7 1 40 -19 72 -43z"/>
</g>
</svg>
